<svg width="24" height="24" viewBox="0 0 24 24" fill="#CCCCCC" xmlns="http://www.w3.org/2000/svg">
<path d="M4 10.496V15C4 15.7956 4.31607 16.5587 4.87868 17.1213C5.44129 17.6839 6.20435 18 7 18H17C17.7956 18 18.5587 17.6839 19.1213 17.1213C19.6839 16.5587 20 15.7956 20 15V10.496L12.41 13.912C12.2811 13.97 12.1413 13.9999 12 13.9999C11.8587 13.9999 11.7189 13.97 11.59 13.912L4 10.496ZM4.074 8.336L12 11.904L19.926 8.336C19.7754 7.67255 19.4038 7.07998 18.8721 6.65552C18.3405 6.23106 17.6803 5.99991 17 6H7C6.31968 5.99991 5.65952 6.23106 5.12786 6.65552C4.59619 7.07998 4.22458 7.67255 4.074 8.336Z" />
</svg>
