<svg width="64" height="32" viewBox="0 0 64 32" fill="#181818" xmlns="http://www.w3.org/2000/svg">
<path fill-rule="evenodd" clip-rule="evenodd" d="M15.9999 0H16.0001C16.2619 0 16.5236 0.00642421 16.7851 0.0192726C17.0467 0.032121 17.3077 0.0513781 17.5683 0.0770437C17.8289 0.10271 18.0887 0.134754 18.3477 0.173175C18.6068 0.211597 18.8647 0.25635 19.1215 0.307434C19.3783 0.358519 19.6338 0.415874 19.8878 0.479498C20.1418 0.543123 20.394 0.61294 20.6446 0.68895C20.8952 0.764962 21.1437 0.847077 21.3902 0.935294C21.6368 1.02351 21.881 1.11772 22.123 1.21792C22.3649 1.31813 22.6042 1.42421 22.8409 1.53616C23.0776 1.64812 23.3115 1.76582 23.5424 1.88925C23.7733 2.01269 24.0011 2.14171 24.2257 2.27633C24.4503 2.41095 24.6714 2.551 24.8891 2.69648C25.1069 2.84195 25.3209 2.99268 25.5312 3.14867C25.7415 3.30465 25.9479 3.4657 26.1503 3.63182C26.3527 3.79794 26.5509 3.96892 26.7449 4.14476C26.939 4.32061 27.1286 4.50112 27.3137 4.68628C27.4989 4.87143 27.6794 5.06102 27.8552 5.25504C28.0311 5.44905 28.2021 5.64727 28.3682 5.84968C28.5343 6.0521 28.6954 6.25847 28.8513 6.46881C29.0073 6.6791 29.158 6.89313 29.3035 7.11088C29.449 7.32858 29.5891 7.54973 29.7237 7.77431C29.8583 7.99894 29.9873 8.22671 30.1108 8.45763C30.2342 8.68854 30.3519 8.92235 30.4638 9.15906C30.5758 9.39577 30.6819 9.63508 30.7821 9.877C30.8823 10.1189 30.9765 10.3632 31.0647 10.6097C31.1529 10.8563 31.235 11.1048 31.3111 11.3554C31.3871 11.606 31.4569 11.8583 31.5205 12.1123C31.5841 12.3663 31.6415 12.6217 31.6926 12.8785C31.7436 13.1353 31.7884 13.3933 31.8268 13.6523C31.8652 13.9113 31.8973 14.1711 31.9229 14.4317C31.9486 14.6923 31.9679 14.9533 31.9807 15.2149C31.9936 15.4764 32 15.7381 32 15.9999V32H15.9999C15.7381 32 15.4764 31.9936 15.2149 31.9807C14.9533 31.9679 14.6923 31.9486 14.4317 31.9229C14.1711 31.8973 13.9113 31.8652 13.6523 31.8268C13.3933 31.7884 13.1353 31.7436 12.8785 31.6926C12.6217 31.6415 12.3663 31.5841 12.1123 31.5205C11.8583 31.4569 11.606 31.3871 11.3554 31.3111C11.1048 31.235 10.8563 31.1529 10.6097 31.0647C10.3632 30.9765 10.1189 30.8823 9.877 30.7821C9.63508 30.6819 9.39577 30.5758 9.15906 30.4638C8.92235 30.3519 8.68854 30.2342 8.45763 30.1108C8.22671 29.9873 7.99894 29.8583 7.77431 29.7237C7.54973 29.5891 7.32858 29.449 7.11088 29.3035C6.89313 29.158 6.6791 29.0073 6.46881 28.8513C6.25847 28.6954 6.0521 28.5343 5.84968 28.3682C5.64727 28.2021 5.44905 28.0311 5.25504 27.8552C5.06102 27.6794 4.87143 27.4989 4.68628 27.3137C4.50112 27.1286 4.32061 26.939 4.14476 26.7449C3.96892 26.5509 3.79794 26.3527 3.63182 26.1503C3.4657 25.9479 3.30465 25.7415 3.14867 25.5312C2.99268 25.3209 2.84195 25.1069 2.69648 24.8891C2.551 24.6714 2.41095 24.4503 2.27633 24.2257C2.14171 24.0011 2.01269 23.7733 1.88925 23.5424C1.76582 23.3115 1.64812 23.0776 1.53616 22.8409C1.42421 22.6042 1.31813 22.3649 1.21792 22.123C1.11772 21.881 1.02351 21.6368 0.935294 21.3902C0.847077 21.1437 0.764962 20.8952 0.68895 20.6446C0.61294 20.394 0.543123 20.1418 0.479498 19.8878C0.415874 19.6338 0.358519 19.3783 0.307434 19.1215C0.25635 18.8647 0.211597 18.6068 0.173175 18.3477C0.134754 18.0887 0.10271 17.8289 0.0770437 17.5683C0.0513781 17.3077 0.032121 17.0467 0.0192726 16.7851C0.00642421 16.5236 0 16.2619 0 16.0001V15.9999C0 15.7381 0.00642421 15.4764 0.0192726 15.2149C0.032121 14.9533 0.0513781 14.6923 0.0770437 14.4317C0.10271 14.1711 0.134754 13.9113 0.173175 13.6523C0.211597 13.3933 0.25635 13.1353 0.307434 12.8785C0.358519 12.6217 0.415874 12.3663 0.479498 12.1123C0.543123 11.8583 0.61294 11.606 0.68895 11.3554C0.764962 11.1048 0.847077 10.8563 0.935294 10.6097C1.02351 10.3632 1.11772 10.1189 1.21792 9.877C1.31813 9.63508 1.42421 9.39577 1.53616 9.15906C1.64812 8.92235 1.76582 8.68854 1.88925 8.45763C2.01269 8.22671 2.14171 7.99894 2.27633 7.77431C2.41095 7.54973 2.551 7.32858 2.69648 7.11088C2.84195 6.89313 2.99268 6.6791 3.14867 6.46881C3.30465 6.25847 3.4657 6.0521 3.63182 5.84968C3.79794 5.64727 3.96892 5.44905 4.14476 5.25504C4.32061 5.06102 4.50112 4.87143 4.68628 4.68628C4.87143 4.50112 5.06102 4.32061 5.25504 4.14476C5.44905 3.96892 5.64727 3.79794 5.84968 3.63182C6.0521 3.4657 6.25847 3.30465 6.46881 3.14867C6.6791 2.99268 6.89313 2.84195 7.11088 2.69648C7.32858 2.551 7.54973 2.41095 7.77431 2.27633C7.99894 2.14171 8.22671 2.01269 8.45763 1.88925C8.68854 1.76582 8.92235 1.64812 9.15906 1.53616C9.39577 1.42421 9.63508 1.31813 9.877 1.21792C10.1189 1.11772 10.3632 1.02351 10.6097 0.935294C10.8563 0.847077 11.1048 0.764962 11.3554 0.68895C11.606 0.61294 11.8583 0.543123 12.1123 0.479498C12.3663 0.415874 12.6217 0.358519 12.8785 0.307434C13.1353 0.25635 13.3933 0.211597 13.6523 0.173175C13.9113 0.134754 14.1711 0.10271 14.4317 0.0770437C14.6923 0.0513781 14.9533 0.032121 15.2149 0.0192726C15.4764 0.00642421 15.7381 0 15.9999 0Z" />
<path fill-rule="evenodd" clip-rule="evenodd" d="M48.0001 32H47.9999C47.7381 32 47.4764 31.9936 47.2149 31.9807C46.9533 31.9679 46.6923 31.9486 46.4317 31.9229C46.1711 31.8973 45.9113 31.8652 45.6522 31.8268C45.3932 31.7884 45.1353 31.7436 44.8785 31.6926C44.6217 31.6415 44.3663 31.5841 44.1123 31.5205C43.8583 31.4569 43.606 31.3871 43.3554 31.3111C43.1048 31.235 42.8563 31.1529 42.6097 31.0647C42.3631 30.9765 42.1189 30.8823 41.877 30.7821C41.6351 30.6819 41.3958 30.5758 41.1591 30.4638C40.9224 30.3519 40.6885 30.2342 40.4576 30.1108C40.2267 29.9873 39.9989 29.8583 39.7743 29.7237C39.5497 29.5891 39.3286 29.449 39.1108 29.3035C38.8931 29.158 38.6791 29.0073 38.4688 28.8513C38.2585 28.6954 38.0521 28.5343 37.8497 28.3682C37.6473 28.2021 37.4491 28.0311 37.2551 27.8552C37.061 27.6794 36.8714 27.4989 36.6862 27.3137C36.5011 27.1286 36.3206 26.939 36.1447 26.7449C35.9689 26.5509 35.7979 26.3527 35.6318 26.1503C35.4657 25.9479 35.3046 25.7415 35.1487 25.5312C34.9927 25.3209 34.8419 25.1069 34.6964 24.8891C34.551 24.6714 34.4109 24.4503 34.2763 24.2257C34.1417 24.0011 34.0127 23.7733 33.8893 23.5424C33.7658 23.3115 33.6481 23.0776 33.5362 22.8409C33.4242 22.6042 33.3181 22.3649 33.2179 22.123C33.1177 21.881 33.0235 21.6368 32.9353 21.3902C32.8471 21.1437 32.7649 20.8952 32.6889 20.6446C32.6129 20.394 32.5431 20.1418 32.4795 19.8878C32.4159 19.6338 32.3585 19.3783 32.3074 19.1215C32.2564 18.8647 32.2116 18.6068 32.1732 18.3477C32.1348 18.0887 32.1027 17.8289 32.0771 17.5683C32.0514 17.3077 32.0321 17.0467 32.0192 16.7851C32.0064 16.5236 32 16.2619 32 16.0001V0H48.0001C48.2619 0 48.5236 0.00642421 48.7851 0.0192726C49.0467 0.032121 49.3077 0.0513781 49.5683 0.0770437C49.8289 0.10271 50.0887 0.134754 50.3478 0.173175C50.6068 0.211597 50.8647 0.25635 51.1215 0.307434C51.3783 0.358519 51.6337 0.415874 51.8877 0.479498C52.1417 0.543123 52.394 0.61294 52.6446 0.68895C52.8952 0.764962 53.1437 0.847077 53.3903 0.935294C53.6368 1.02351 53.881 1.11772 54.123 1.21792C54.3649 1.31813 54.6042 1.42421 54.8409 1.53616C55.0776 1.64812 55.3115 1.76582 55.5424 1.88925C55.7733 2.01269 56.0011 2.14171 56.2257 2.27633C56.4503 2.41095 56.6714 2.551 56.8891 2.69648C57.1069 2.84195 57.3209 2.99268 57.5312 3.14867C57.7415 3.30465 57.9479 3.4657 58.1503 3.63182C58.3527 3.79794 58.5509 3.96892 58.7449 4.14476C58.939 4.32061 59.1286 4.50112 59.3138 4.68628C59.4989 4.87143 59.6794 5.06102 59.8553 5.25504C60.0311 5.44905 60.2021 5.64727 60.3682 5.84968C60.5343 6.0521 60.6954 6.25847 60.8513 6.46881C61.0073 6.6791 61.158 6.89313 61.3035 7.11088C61.449 7.32858 61.5891 7.54973 61.7237 7.77431C61.8583 7.99894 61.9873 8.22671 62.1107 8.45763C62.2342 8.68854 62.3519 8.92235 62.4638 9.15906C62.5759 9.39577 62.6819 9.63508 62.7819 9.877C62.8823 10.1189 62.9767 10.3632 63.065 10.6097C63.1529 10.8563 63.235 11.1048 63.3112 11.3554C63.3871 11.606 63.4569 11.8583 63.5206 12.1123C63.584 12.3663 63.6413 12.6217 63.6925 12.8785C63.7438 13.1353 63.7885 13.3933 63.8269 13.6523C63.8652 13.9113 63.8973 14.1711 63.9231 14.4317C63.9485 14.6923 63.9677 14.9533 63.9806 15.2149C63.9935 15.4764 64 15.7381 64 15.9999V16.0001C64 16.2619 63.9935 16.5236 63.9806 16.7851C63.9677 17.0467 63.9485 17.3077 63.9231 17.5683C63.8973 17.8289 63.8652 18.0887 63.8269 18.3477C63.7885 18.6068 63.7438 18.8647 63.6925 19.1215C63.6413 19.3783 63.584 19.6338 63.5206 19.8878C63.4569 20.1418 63.3871 20.394 63.3112 20.6446C63.235 20.8952 63.1529 21.1437 63.065 21.3902C62.9767 21.6368 62.8823 21.881 62.7819 22.123C62.6819 22.3649 62.5759 22.6042 62.4638 22.8409C62.3519 23.0776 62.2342 23.3115 62.1107 23.5424C61.9873 23.7733 61.8583 24.0011 61.7237 24.2257C61.5891 24.4503 61.449 24.6714 61.3035 24.8891C61.158 25.1069 61.0073 25.3209 60.8513 25.5312C60.6954 25.7415 60.5343 25.9479 60.3682 26.1503C60.2021 26.3527 60.0311 26.5509 59.8553 26.7449C59.6794 26.939 59.4989 27.1286 59.3138 27.3137C59.1286 27.4989 58.939 27.6794 58.7449 27.8552C58.5509 28.0311 58.3527 28.2021 58.1503 28.3682C57.9479 28.5343 57.7415 28.6954 57.5312 28.8513C57.3209 29.0073 57.1069 29.158 56.8891 29.3035C56.6714 29.449 56.4503 29.5891 56.2257 29.7237C56.0011 29.8583 55.7733 29.9873 55.5424 30.1108C55.3115 30.2342 55.0776 30.3519 54.8409 30.4638C54.6042 30.5758 54.3649 30.6819 54.123 30.7821C53.881 30.8823 53.6368 30.9765 53.3903 31.0647C53.1437 31.1529 52.8952 31.235 52.6446 31.3111C52.394 31.3871 52.1417 31.4569 51.8877 31.5205C51.6337 31.5841 51.3783 31.6415 51.1215 31.6926C50.8647 31.7436 50.6068 31.7884 50.3478 31.8268C50.0887 31.8652 49.8289 31.8973 49.5683 31.9229C49.3077 31.9486 49.0467 31.9679 48.7851 31.9807C48.5236 31.9936 48.2619 32 48.0001 32Z"/>
</svg>
