<svg width="24" height="24" viewBox="0 0 24 24" fill="#CCCCCC" xmlns="http://www.w3.org/2000/svg">
<path d="M8.07998 20C9.55868 20.0495 11.0323 19.802 12.4137 19.2723C13.7952 18.7426 15.0564 17.9413 16.1229 16.9158C17.1894 15.8903 18.0395 14.6615 18.623 13.3019C19.2064 11.9423 19.5115 10.4795 19.52 9C20.1976 8.16141 20.7008 7.19583 21 6.16C21.0223 6.07816 21.0205 5.99161 20.9948 5.91077C20.9691 5.82993 20.9205 5.75825 20.855 5.70436C20.7895 5.65047 20.7098 5.61667 20.6255 5.60702C20.5412 5.59738 20.456 5.6123 20.38 5.65C20.0255 5.82065 19.6263 5.87578 19.2388 5.8076C18.8513 5.73943 18.495 5.5514 18.22 5.27C17.8689 4.88558 17.4443 4.57553 16.9712 4.35823C16.4982 4.14092 15.9863 4.02079 15.4659 4.00493C14.9456 3.98908 14.4273 4.07783 13.9419 4.26594C13.4565 4.45404 13.0138 4.73766 12.64 5.1C12.1282 5.59566 11.7533 6.21529 11.5518 6.89867C11.3503 7.58206 11.329 8.30595 11.49 9C8.13998 9.2 5.83998 7.61 3.99998 5.43C3.9447 5.3674 3.87239 5.32225 3.79188 5.30007C3.71137 5.27788 3.62614 5.27962 3.54661 5.30508C3.46707 5.33053 3.39666 5.37859 3.34399 5.44339C3.29131 5.5082 3.25865 5.58694 3.24998 5.67C2.89945 7.61442 3.15231 9.61955 3.9746 11.4161C4.79689 13.2126 6.14922 14.7145 7.84998 15.72C6.70962 17.0278 5.10819 17.8447 3.37998 18C3.28739 18.0154 3.20192 18.0593 3.13553 18.1256C3.06914 18.1919 3.02515 18.2774 3.00972 18.37C2.99429 18.4625 3.0082 18.5576 3.04948 18.6419C3.09077 18.7262 3.15738 18.7954 3.23998 18.84C4.7435 19.5914 6.39921 19.9882 8.07998 20Z" />
</svg>
